Coordinates
version=1
nRows=13
nColumns=28
inDegrees=yes

Units are S.I. units (second, meters, Newtons, ...)
If the header above contains a line with 'inDegrees', this indicates whether rotational values are in degrees (yes) or radians (no).

endheader
time	pelvis_tilt	pelvis_list	pelvis_rotation	pelvis_tx	pelvis_ty	pelvis_tz	hip_flexion_r	hip_adduction_r	hip_rotation_r	knee_angle_r	knee_angle_r_ie	knee_angle_r_vv	ankle_angle_r	subtalar_angle_r	mtp_angle_r	hip_flexion_l	hip_adduction_l	hip_rotation_l	knee_angle_l	knee_angle_l_ie	knee_angle_l_vv	ankle_angle_l	subtalar_angle_l	mtp_angle_l	lumbar_extension	lumbar_bending	lumbar_rotation
16.915	3.2146286	5.72171111	13.6167212	0.27408745	0.79304838	0.03715283	-2.52914684	-36.03013881	-16.3029792	-18.13445992	-1.54762027	-5.88998796	-4.09349068	-4.6387534	0	6.04511097	-35.71122125	0.30423189	-10.47022316	6.30567354	0.59633666	-35.51705207	3.14225607	0	-27.3062875	-0.21100823	-6.03268674
16.92	3.09020891	5.38676801	13.68655307	0.27348435	0.79241551	0.02891866	-3.30131094	-36.20368107	-16.72103883	-16.5635908	-1.82725377	-5.53687277	-5.92173071	-4.27225825	0	6.3436902	-35.311594	-0.28861642	-11.24922192	6.00485357	0.90803829	-34.40867571	1.99995546	0	-27.02124595	-0.35193227	-5.70256469
16.925	2.97706824	5.08538059	13.8072158	0.27280075	0.79186147	0.02051347	-4.16946893	-36.40841463	-17.27259389	-14.91318127	-2.12407303	-5.19168501	-7.88500749	-3.88012069	0	6.71177607	-34.82061876	-0.87780587	-12.17997493	5.88747814	1.31138953	-32.85065626	0.82230354	0	-26.77202498	-0.51526655	-5.38903462
16.93	2.85316468	4.71083101	13.94463065	0.27209365	0.79128772	0.01211498	-5.00540167	-36.52859378	-17.86614298	-13.26190126	-2.43653669	-4.86850369	-9.96581654	-3.43077738	0	7.17240446	-34.416218	-1.45304448	-13.24014891	5.98723008	1.81159632	-30.78917604	0.15841467	0	-26.49639919	-0.61307649	-5.09588732
16.935	2.7349127	4.3463794	14.10179645	0.27135223	0.79074936	0.00361309	-5.87117014	-36.63176449	-18.52725698	-11.55718961	-2.70928086	-4.60064547	-12.31177304	-3.13873337	0	7.69240179	-33.97307627	-1.96391529	-14.40353228	6.59119665	2.45331725	-28.06858638	0.80761202	0	-26.23222061	-0.72732184	-4.84332404
16.94	2.52037657	3.92310518	14.30617857	0.27035176	0.79008314	-0.00487587	-6.56484743	-36.72251646	-19.10269763	-9.96061547	-3.11912385	-4.26294648	-14.66029721	-2.74830764	0	8.45075013	-33.59524094	-2.37819163	-15.67297135	7.38615413	3.07662902	-25.02619086	1.96089358	0	-25.90437983	-0.78684038	-4.7061883
16.945	2.24545257	3.47774937	14.46908671	0.26927223	0.78931456	-0.01329486	-7.08446449	-36.79940821	-19.50713554	-8.42881332	-3.64529749	-3.94931355	-17.09122043	-2.43135736	0	9.28462329	-33.2808385	-2.80181824	-16.97682821	8.11287246	3.67105716	-21.88091295	3.40964543	0	-25.52947829	-0.88307779	-4.54523001
16.95	1.96855522	2.97493114	14.67175979	0.26805486	0.7884728	-0.02169799	-7.55103884	-36.81116744	-19.81299603	-6.97765814	-4.27426461	-3.62374908	-19.55615813	-2.22580134	0	10.20240317	-33.0485899	-3.12358565	-18.25737212	8.68074624	4.26774278	-18.80403533	4.94800737	0	-25.16467241	-0.91559038	-4.43679068
16.955	1.63324663	2.47038067	14.86501054	0.2667201	0.78753012	-0.03000311	-7.85151589	-36.85934886	-19.93790048	-5.68871702	-4.96996109	-3.24451775	-21.97625675	-2.26644315	0	11.16982548	-32.920453	-3.35497469	-19.51763501	8.82112938	4.6230632	-15.9351013	5.88594702	0	-24.76711142	-0.97819207	-4.38378231
16.96	1.27840563	1.95496514	15.07848705	0.26517475	0.78654123	-0.03819748	-8.0262344	-36.90674285	-19.93130066	-4.57029439	-5.73508461	-2.87337993	-24.28976891	-2.39578633	0	12.17149733	-32.89119085	-3.52767375	-20.73510416	8.34364078	4.79050755	-13.3381512	6.01103052	0	-24.39759224	-1.03943312	-4.42510889
16.965	0.90830212	1.41839902	15.25653035	0.26358563	0.78546557	-0.04622202	-8.03810139	-36.94603363	-19.76131541	-3.64010153	-6.5232127	-2.50711186	-26.43617236	-2.69447677	0	13.13531357	-32.98120834	-3.66178781	-21.8711478	7.42748376	4.76304636	-10.97142004	5.48285516	0	-24.03235518	-1.11062795	-4.47746795
16.97	0.46884703	0.86270032	15.4040912	0.26178244	0.78431683	-0.0540699	-7.79099292	-36.99946029	-19.52486356	-2.95948628	-7.11809783	-2.14269525	-28.40474766	-3.30749389	0	14.15451629	-33.13756845	-3.83733425	-22.93576718	6.18744492	4.62323282	-8.81494396	4.49199521	0	-23.6356438	-1.20894712	-4.5510105
16.975	0.05762035	0.35491021	15.56829722	0.25997652	0.78318723	-0.06171717	-7.48911836	-37.06754884	-19.11545597	-2.491819	-7.72054684	-1.82260409	-30.11627203	-4.08309687	0	15.09475478	-33.28372562	-3.98925542	-23.85156132	4.9837005	4.40982736	-6.84146432	3.37848467	0	-23.30026546	-1.36897935	-4.69608957
